# xmcd
#
# Track frame offsets:
#	150
#	14325
#	34398
#	50284
#	66963
#	78095
#	89368
#	103119
#	116315
#	127574
#	141811
#	156152
#	170568
#	185217
#	198155
#	209819
#
# Disc length: 2987 seconds
#
# Revision: 2
# Processed by: cddbd v1.5.2PL0 Copyright (c) Steve Scherf et al.
# Submitted via: audiograbber 1.83.01
#
DISCID=db0ba910
DTITLE=ICMAG - ICMAG 2000-11
DYEAR=2000
DGENRE=Country
TTITLE0=Heaven Just A Sin Away  - Anni Filt
TTITLE1=House Of Gold  - Jim Russ
TTITLE2=Hot News Song  - Tina Raugh
TTITLE3=It´s Time I Settled Down  - Colin Clark
TTITLE4=Lonesome Love List  - Andy Martin
TTITLE5=Movin To The Music  - Amber Morgan
TTITLE6=Noboddy Wins  - Lance  Allen
TTITLE7=Once A Day  - Jollie Holliday
TTITLE8=Out Of The Blue  - Bente´ Boe
TTITLE9=Big Bad John  - Ron Jordan
TTITLE10=She´s Evry Woman  - Victoria Shaw
TTITLE11=Slowdown  - Hermann Lammers Meyer
TTITLE12=The String - Charlie Shearer
TTITLE13=There Is Nothing More To Say - Bob Browning
TTITLE14=Workin´ Like A Dog  - Pat Roden
TTITLE15=Ben Colder, Please Don´t Sing My Song  - Rye W. Henderson
EXTD=
EXTT0=
EXTT1=
EXTT2=
EXTT3=
EXTT4=
EXTT5=
EXTT6=
EXTT7=
EXTT8=
EXTT9=
EXTT10=
EXTT11=
EXTT12=
EXTT13=
EXTT14=
EXTT15=
PLAYORDER=
